<svg xmlns="http://www.w3.org/2000/svg" viewBox="0 0 32 32"><g fill="none" fill-rule="evenodd"><circle cx="16" cy="16" r="16" fill="#0033AD"/><path d="M16.15 5.2c.216 0 .406.15.456.359l.706 3.114c.097.433.363.82.74 1.082l2.288 1.591a.47.47 0 01.155.631l-.106.157-2.067 2.527a1.61 1.61 0 00-.366 1.024v3.164c0 .434.173.85.48 1.155l2.368 2.38a.47.47 0 01-.006.666l-.138.131-2.35 1.935a1.61 1.61 0 01-.864.32l-3.266.184a.47.47 0 01-.498-.47v-.184l.216-3.106c.031-.433-.097-.865-.358-1.213l-1.955-2.622a.47.47 0 01.05-.65l.13-.099 2.726-1.63c.363-.216.605-.59.67-1.007l.407-2.773a.47.47 0 01.605-.394l.168.056 2.942 1.29a1.61 1.61 0 001.299 0l2.942-1.29a.47.47 0 01.605.394l.407 2.773c.065.417.307.791.67 1.007l2.726 1.63a.47.47 0 01.18.749l-1.955 2.622c-.26.348-.389.78-.358 1.213l.216 3.106a.47.47 0 01-.498.654l-3.266-.184a1.61 1.61 0 01-.864-.32l-2.35-1.935a.47.47 0 01-.144-.797l2.368-2.38c.307-.305.48-.721.48-1.155v-3.164c0-.375-.13-.739-.366-1.024l-2.067-2.527a.47.47 0 01.049-.788l2.288-1.59c.377-.263.643-.65.74-1.083l.706-3.114A.47.47 0 0116.15 5.2zm-.301 1.525c-.377 0-.707.26-.79.625l-.437 1.93a2.8 2.8 0 01-1.282 1.875l-1.415.984c-.35.243-.437.72-.193 1.07l.437.63 1.277 1.56c.632.773.978 1.747.978 2.763v1.954c0 .753-.301 1.477-.835 2.007l-1.464 1.47c-.323.325-.323.85.006 1.17l.144.137 1.453 1.197c.35.288.79.456 1.245.473l2.02.114-.133-1.92a2.8 2.8 0 01.632-2.1l1.208-1.622c.266-.354.2-.85-.15-1.118l-1.684-1.007a2.8 2.8 0 01-1.16-1.747l-.252-1.72c-.08-.537-.52-.94-1.057-.96l-1.823-.069c-.377-.014-.687.288-.687.665 0 .354.273.647.627.665l1.823.069c.18.007.326.14.352.32l.252 1.72c.13.883.632 1.67 1.39 2.093l1.684 1.007c.35.21.415.665.15 1.02l-1.208 1.62a2.8 2.8 0 00-.632 2.1l.133 1.92 2.02-.114c.456-.026.895-.185 1.245-.473l1.453-1.197a.47.47 0 00.15-1.307l-1.464-1.47a2.8 2.8 0 01-.835-2.007v-1.954c0-1.016.346-1.99.978-2.763l1.277-1.56.437-.63c.244-.35.157-.827-.193-1.07l-1.415-.984a2.8 2.8 0 01-1.282-1.875l-.437-1.93c-.083-.365-.413-.625-.79-.625-.366 0-.683.246-.784.597l-.437 1.958a2.8 2.8 0 01-1.282 1.875l-1.415.984c-.35.243-.437.72-.193 1.07l1.714 2.19c.632.773.978 1.747.978 2.763v1.954c0 .753-.301 1.477-.835 2.007l-1.464 1.47c-.323.325-.323.85.006 1.17l.144.137 1.453 1.197c.35.288.79.456 1.245.473l2.02.114-.133-1.92a2.8 2.8 0 01.632-2.1l1.208-1.622c.266-.354.2-.85-.15-1.118l-1.684-1.007a2.8 2.8 0 01-1.16-1.747l-.252-1.72c-.08-.537-.52-.94-1.057-.96l-1.823-.069c-.377-.014-.687.288-.687.665 0 .354.273.647.627.665l1.823.069c.18.007.326.14.352.32l.252 1.72c.13.883.632 1.67 1.39 2.093l1.684 1.007c.35.21.415.665.15 1.02l-1.208 1.62a2.8 2.8 0 00-.632 2.1l.133 1.92 2.02-.114c.456-.026.895-.185 1.245-.473l1.453-1.197a.47.47 0 00.15-1.307l-1.464-1.47a2.8 2.8 0 01-.835-2.007v-1.954c0-1.016.346-1.99.978-2.763l1.714-2.19c.244-.35.157-.827-.193-1.07l-1.415-.984a2.8 2.8 0 01-1.282-1.875l-.437-1.958c-.1-.351-.418-.597-.784-.597zm.301-3.925c.76 0 1.375.616 1.375 1.375S16.91 5.55 16.15 5.55s-1.375-.616-1.375-1.375.616-1.375 1.375-1.375zm0 .7a.675.675 0 100 1.35.675.675 0 000-1.35zm-7.976 4.2c.76 0 1.375.616 1.375 1.375s-.616 1.375-1.375 1.375-1.375-.616-1.375-1.375.616-1.375 1.375-1.375zm0 .7a.675.675 0 100 1.35.675.675 0 000-1.35zm15.952 0c.76 0 1.375.616 1.375 1.375s-.616 1.375-1.375 1.375-1.375-.616-1.375-1.375.616-1.375 1.375-1.375zm0 .7a.675.675 0 100 1.35.675.675 0 000-1.35zM9.1 14.524c.76 0 1.375.616 1.375 1.375S9.86 17.274 9.1 17.274s-1.375-.616-1.375-1.375.616-1.375 1.375-1.375zm0 .7a.675.675 0 100 1.35.675.675 0 000-1.35zm14.026 0c.76 0 1.375.616 1.375 1.375s-.616 1.375-1.375 1.375-1.375-.616-1.375-1.375.616-1.375 1.375-1.375zm0 .7a.675.675 0 100 1.35.675.675 0 000-1.35zM12.1 21.674c.76 0 1.375.616 1.375 1.375s-.616 1.375-1.375 1.375-1.375-.616-1.375-1.375.616-1.375 1.375-1.375zm0 .7a.675.675 0 100 1.35.675.675 0 000-1.35zm8.026 0c.76 0 1.375.616 1.375 1.375s-.616 1.375-1.375 1.375-1.375-.616-1.375-1.375.616-1.375 1.375-1.375zm0 .7a.675.675 0 100 1.35.675.675 0 000-1.35zm-4.013 3.15c.76 0 1.375.616 1.375 1.375s-.616 1.375-1.375 1.375-1.375-.616-1.375-1.375.616-1.375 1.375-1.375zm0 .7a.675.675 0 100 1.35.675.675 0 000-1.35z" fill="#FFF" fill-rule="nonzero"/></g></svg>
