<svg xmlns="http://www.w3.org/2000/svg" viewBox="0 0 32 32"><g fill="none"><circle cx="16" cy="16" r="16" fill="#E84142"/><path d="M20.31 8h-4.135c-.258 0-.494.142-.613.369l-5.37 10.18a.678.678 0 00.613.987h2.045c.38 0 .551-.468.278-.743l-.953-.963 4.401-8.25h1.725l-5.619 10.545c-.185.348.079.764.468.764h2.01c.256 0 .494-.142.613-.369l5.37-10.18A.678.678 0 0020.31 8zm-6.772 10.54l-1.282-1.28 3.78-7.09h1.725l-4.223 8.37zm8.25-10.54h-2.01a.68.68 0 00-.614.37l-5.37 10.179a.678.678 0 00.614.987h2.01a.68.68 0 00.613-.37l5.37-10.178a.678.678 0 00-.613-.987z" fill="#FFF"/></g></svg>
