<svg xmlns="http://www.w3.org/2000/svg" viewBox="0 0 32 32"><g fill="none"><circle cx="16" cy="16" r="16" fill="#2775CA"/><path d="M16 27C9.925 27 5 22.075 5 16S9.925 5 16 5s11 4.925 11 11-4.925 11-11 11zm-.21-17.6c-2.106 0-3.418 1.328-3.418 3.315 0 1.987 1.195 2.793 3.353 3.135l.875.139c1.477.23 2.104.635 2.104 1.454 0 .885-.8 1.477-2.105 1.477-1.601 0-2.441-.635-2.512-1.932h-2.97c.07 2.845 1.726 4.322 5.447 4.322 2.595 0 5.097-1.155 5.097-3.73 0-1.932-1.195-2.81-3.354-3.152l-.875-.14c-1.511-.244-2.104-.592-2.104-1.37 0-.852.766-1.424 2-1.424 1.337 0 2.035.573 2.07 1.729h2.953c-.035-2.567-1.726-3.823-5.062-3.823zm.175-2.485c.626 0 1.136-.51 1.136-1.136a1.136 1.136 0 00-2.272 0c0 .626.51 1.136 1.136 1.136zm0 12.17a1.136 1.136 0 000 2.272 1.136 1.136 0 000-2.272z" fill="#FFF"/></g></svg>
