<svg width="32" height="32" viewBox="0 0 32 32" fill="none" xmlns="http://www.w3.org/2000/svg">
<path d="M16 32C24.8366 32 32 24.8366 32 16C32 7.16344 24.8366 0 16 0C7.16344 0 0 7.16344 0 16C0 24.8366 7.16344 32 16 32Z" fill="#F3BA2F"/>
<path d="M12.116 14.404L16 10.52L19.886 14.406L22.146 12.146L16 6L9.856 12.144L12.116 14.404Z" fill="white"/>
<path d="M6 16L8.26 13.74L10.52 16L8.26 18.26L6 16Z" fill="white"/>
<path d="M12.116 17.596L16 21.48L19.886 17.594L22.146 19.853L16 26L9.856 19.856L12.116 17.596Z" fill="white"/>
<path d="M21.48 16L23.74 13.74L26 16L23.74 18.26L21.48 16Z" fill="white"/>
<path d="M16 12.116L18.26 14.376L16 16.636L13.74 14.376L16 12.116Z" fill="white"/>
</svg>
