<svg width="32" height="32" viewBox="0 0 32 32" fill="none" xmlns="http://www.w3.org/2000/svg">
<path d="M16 32C24.8366 32 32 24.8366 32 16C32 7.16344 24.8366 0 16 0C7.16344 0 0 7.16344 0 16C0 24.8366 7.16344 32 16 32Z" fill="#0052FF"/>
<path d="M16 6C10.48 6 6 10.48 6 16C6 21.52 10.48 26 16 26C21.52 26 26 21.52 26 16C26 10.48 21.52 6 16 6ZM13.88 21.5C11.42 21.5 9.38 19.5 9.38 17C9.38 14.5 11.38 12.5 13.88 12.5C15.12 12.5 16.22 13.02 17 13.84L15.56 15.28C15.12 14.84 14.54 14.56 13.88 14.56C12.52 14.56 11.44 15.66 11.44 17C11.44 18.34 12.54 19.44 13.88 19.44C14.54 19.44 15.12 19.16 15.56 18.72L17 20.16C16.22 20.98 15.12 21.5 13.88 21.5ZM22.62 17C22.62 19.5 20.62 21.5 18.12 21.5C16.88 21.5 15.78 20.98 15 20.16L16.44 18.72C16.88 19.16 17.46 19.44 18.12 19.44C19.48 19.44 20.56 18.34 20.56 17C20.56 15.66 19.46 14.56 18.12 14.56C17.46 14.56 16.88 14.84 16.44 15.28L15 13.84C15.78 13.02 16.88 12.5 18.12 12.5C20.62 12.5 22.62 14.5 22.62 17Z" fill="white"/>
</svg>
