<svg width="32" height="32" viewBox="0 0 32 32" fill="none" xmlns="http://www.w3.org/2000/svg">
<path d="M16 32C24.8366 32 32 24.8366 32 16C32 7.16344 24.8366 0 16 0C7.16344 0 0 7.16344 0 16C0 24.8366 7.16344 32 16 32Z" fill="#5741D9"/>
<path d="M22.3 18.5C22.1 18.7 21.9 18.9 21.7 19.1C21.3 19.5 20.9 19.9 20.5 20.3C20.3 20.5 20.1 20.7 19.9 20.9C19.7 21.1 19.5 21.3 19.3 21.5C19.1 21.7 18.9 21.9 18.7 22.1C18.5 22.3 18.3 22.5 18.1 22.7C18 22.8 17.9 22.9 17.8 23C17.7 23.1 17.6 23.2 17.5 23.3C17.4 23.4 17.3 23.5 17.2 23.6C17.1 23.7 17 23.8 16.9 23.9C16.8 24 16.7 24.1 16.6 24.2C16.5 24.3 16.4 24.4 16.3 24.5C16.2 24.6 16.1 24.7 16 24.8C15.9 24.7 15.8 24.6 15.7 24.5C15.6 24.4 15.5 24.3 15.4 24.2C15.3 24.1 15.2 24 15.1 23.9C15 23.8 14.9 23.7 14.8 23.6C14.7 23.5 14.6 23.4 14.5 23.3C14.4 23.2 14.3 23.1 14.2 23C14.1 22.9 14 22.8 13.9 22.7C13.7 22.5 13.5 22.3 13.3 22.1C13.1 21.9 12.9 21.7 12.7 21.5C12.5 21.3 12.3 21.1 12.1 20.9C11.9 20.7 11.7 20.5 11.5 20.3C11.1 19.9 10.7 19.5 10.3 19.1C10.1 18.9 9.9 18.7 9.7 18.5C9.5 18.3 9.3 18.1 9.1 17.9C8.9 17.7 8.7 17.5 8.5 17.3C8.3 17.1 8.1 16.9 7.9 16.7C7.7 16.5 7.5 16.3 7.3 16.1C7.2 16 7.1 15.9 7 15.8C7.1 15.7 7.2 15.6 7.3 15.5C7.5 15.3 7.7 15.1 7.9 14.9C8.1 14.7 8.3 14.5 8.5 14.3C8.7 14.1 8.9 13.9 9.1 13.7C9.3 13.5 9.5 13.3 9.7 13.1C9.9 12.9 10.1 12.7 10.3 12.5C10.7 12.1 11.1 11.7 11.5 11.3C11.7 11.1 11.9 10.9 12.1 10.7C12.3 10.5 12.5 10.3 12.7 10.1C12.9 9.9 13.1 9.7 13.3 9.5C13.5 9.3 13.7 9.1 13.9 8.9C14 8.8 14.1 8.7 14.2 8.6C14.3 8.5 14.4 8.4 14.5 8.3C14.6 8.2 14.7 8.1 14.8 8C14.9 7.9 15 7.8 15.1 7.7C15.2 7.6 15.3 7.5 15.4 7.4C15.5 7.3 15.6 7.2 15.7 7.1C15.8 7 15.9 6.9 16 6.8C16.1 6.9 16.2 7 16.3 7.1C16.4 7.2 16.5 7.3 16.6 7.4C16.7 7.5 16.8 7.6 16.9 7.7C17 7.8 17.1 7.9 17.2 8C17.3 8.1 17.4 8.2 17.5 8.3C17.6 8.4 17.7 8.5 17.8 8.6C17.9 8.7 18 8.8 18.1 8.9C18.3 9.1 18.5 9.3 18.7 9.5C18.9 9.7 19.1 9.9 19.3 10.1C19.5 10.3 19.7 10.5 19.9 10.7C20.1 10.9 20.3 11.1 20.5 11.3C20.9 11.7 21.3 12.1 21.7 12.5C21.9 12.7 22.1 12.9 22.3 13.1C22.5 13.3 22.7 13.5 22.9 13.7C23.1 13.9 23.3 14.1 23.5 14.3C23.7 14.5 23.9 14.7 24.1 14.9C24.3 15.1 24.5 15.3 24.7 15.5C24.8 15.6 24.9 15.7 25 15.8C24.9 15.9 24.8 16 24.7 16.1C24.5 16.3 24.3 16.5 24.1 16.7C23.9 16.9 23.7 17.1 23.5 17.3C23.3 17.5 23.1 17.7 22.9 17.9C22.7 18.1 22.5 18.3 22.3 18.5ZM16 9.5C12.4 9.5 9.5 12.4 9.5 16C9.5 19.6 12.4 22.5 16 22.5C19.6 22.5 22.5 19.6 22.5 16C22.5 12.4 19.6 9.5 16 9.5Z" fill="white"/>
<path d="M16 20.5C14.3 20.5 13 19.2 13 17.5C13 15.8 14.3 14.5 16 14.5C17.7 14.5 19 15.8 19 17.5C19 19.2 17.7 20.5 16 20.5Z" fill="white"/>
</svg>
