<?xml version="1.0" encoding="UTF-8"?>
<svg width="32px" height="32px" viewBox="0 0 32 32" version="1.1" xmlns="http://www.w3.org/2000/svg" xmlns:xlink="http://www.w3.org/1999/xlink">
    <title>Sandbox</title>
    <g id="Sandbox" stroke="none" stroke-width="1" fill="none" fill-rule="evenodd">
        <circle id="Background" fill="#6366F1" cx="16" cy="16" r="16"></circle>
        <g id="Sandbox-Icon" transform="translate(6.000000, 6.000000)" fill="#FFFFFF" fill-rule="nonzero">
            <path d="M10,0 C15.5228,0 20,4.47715 20,10 C20,15.5228 15.5228,20 10,20 C4.47715,20 0,15.5228 0,10 C0,4.47715 4.47715,0 10,0 Z M10,2 C5.58172,2 2,5.58172 2,10 C2,14.4183 5.58172,18 10,18 C14.4183,18 18,14.4183 18,10 C18,5.58172 14.4183,2 10,2 Z" id="Outer-Circle"></path>
            <path d="M10,4 C13.3137,4 16,6.68629 16,10 C16,13.3137 13.3137,16 10,16 C6.68629,16 4,13.3137 4,10 C4,6.68629 6.68629,4 10,4 Z M10,6 C7.79086,6 6,7.79086 6,10 C6,12.2091 7.79086,14 10,14 C12.2091,14 14,12.2091 14,10 C14,7.79086 12.2091,6 10,6 Z" id="Inner-Circle"></path>
            <circle id="Center" cx="10" cy="10" r="2"></circle>
        </g>
    </g>
</svg>
